Coordinates
version=1
nRows=5
nColumns=107
inDegrees=yes

Units are S.I. units (second, meters, Newtons, ...)
If the header above contains a line with 'inDegrees', this indicates whether rotational values are in degrees (yes) or radians (no).

endheader
time	sternoclavicular_r2	sternoclavicular_r3	unrotscap_r3	unrotscap_r2	acromioclavicular_r2	acromioclavicular_r3	acromioclavicular_r1	unrothum_r1	unrothum_r3	unrothum_r2	elv_angle	shoulder_elv	shoulder1_r2	shoulder_rot	elbow_flexion	pro_sup	deviation	flexion	proximal_distal_r1	proximal_distal_r3	cmc_flexion	cmc_abduction	mp_flexion	ip_flexion	mcp2_flexion	mcp2_abduction	pm2_flexion	md2_flexion	mcp3_flexion	mcp3_abduction	pm3_flexion	md3_flexion	mcp4_flexion	mcp4_abduction	pm4_flexion	md4_flexion	mcp5_flexion	mcp5_abduction	pm5_flexion	md5_flexion	bicpt_tx	bicpt_ty	bicpt_tz	bicpt2_tx	bicpt2_ty	bicpt2_tz	ptpt_tx	ptpt_ty	ptpt_tz	FCUpt_tx	FCUpt_ty	FCUpt_tz	EDCpt_tx	EDCpt_ty	EDCpt_tz	APLpt_tx	APLpt_ty	APLpt_tz	FPLpt_tx	FPLpt_ty	FPLpt_tz	FPLpt2_tx	FPLpt2_ty	FPLpt2_tz	PEC1pt2_tx	PEC1pt2_ty	PEC1pt2_tz	PEC1pt3_tx	PEC1pt3_ty	PEC1pt3_tz	PEC2pt2_tx	PEC2pt2_ty	PEC2pt2_tz	PEC2pt3_tx	PEC2pt3_ty	PEC2pt3_tz	PEC3pt2_tx	PEC3pt2_ty	PEC3pt2_tz	PEC3pt3_tx	PEC3pt3_ty	PEC3pt3_tz	DELT2pt2a_tx	DELT2pt2a_ty	DELT2pt2a_tz	DELT2pt2_tx	DELT2pt2_ty	DELT2pt2_tz	LAT1pt2_tx	LAT1pt2_ty	LAT1pt2_tz	LAT1pt3_tx	LAT1pt3_ty	LAT1pt3_tz	LAT2pt2_tx	LAT2pt2_ty	LAT2pt2_tz	LAT2pt3_tx	LAT2pt3_ty	LAT2pt3_tz	LAT3pt2_tx	LAT3pt2_ty	LAT3pt2_tz	LAT3pt3_tx	LAT3pt3_ty	LAT3pt3_tz
      0.40000000	     -0.31865811	      0.13496854	     -0.13496854	      0.31865811	     -0.06452179	      0.52144237	      0.23438476	     -0.23438476	     -0.52144237	      0.06452179	     99.36432966	     75.44514035	     -1.73423471	    -23.70896752	     28.33744824	     10.80896802	     -0.05252062	     -0.81794362	     -0.07353565	     -0.40897181	     -9.73927441	      1.25399896	    -32.05609487	      3.59338749	      8.78032556	     10.51182904	     10.17335228	    -26.84988591	     47.86155455	     10.51453976	     86.46516068	     71.44765464	     41.81363342	     -7.10697869	     86.51211687	     53.82034520	    -10.93263181	     -2.45333047	    -15.31118551	      4.97694509	      0.00083731	     -0.03084790	     -0.00482315	      0.01554516	     -0.01789801	     -0.00998884	      0.00675134	     -0.06541643	     -0.00092072	      0.00497282	     -0.18398133	      0.00014166	     -0.00129707	      0.00032428	      0.00012507	      0.00027659	      0.00011064	      0.00055318	      0.00035403	      0.00106210	      0.00059743	     -0.00126811	      0.00029618	      0.00035541	      0.00247293	      0.00867620	      0.00603562	     -0.00808940	      0.01953193	     -0.01852599	      0.00247293	      0.00867620	      0.00603562	      0.00054488	      0.01810685	     -0.00951448	      0.00392052	      0.00482472	      0.01590022	      0.00000000	      0.00761123	      0.00000000	     -0.00708347	     -0.03273484	     -0.00627485	      0.01582453	     -0.00054849	     -0.00469128	     -0.00088019	      0.01475373	     -0.00603562	      0.00243101	      0.02129231	     -0.01760388	     -0.00590987	      0.01278377	     -0.00540691	     -0.01232272	      0.02699262	     -0.03022000	     -0.02313653	      0.01429267	     -0.00725112	     -0.01534052	      0.03118402	     -0.03776452
      0.43333333	     -0.31885112	      0.13505028	     -0.13505028	      0.31885112	     -0.06456087	      0.52175821	      0.23452672	     -0.23452672	     -0.52175821	      0.06456087	     99.30532681	     75.49083654	     -1.73320492	    -23.42254325	     28.35533738	     10.62218590	     -0.05038823	     -0.81900859	     -0.07046175	     -0.40950429	     -9.68826329	      1.37151323	    -32.24712962	      4.19842962	      9.01606644	     10.50507525	     10.13365495	    -26.79688682	     47.89390133	     10.48644584	     86.46559850	     71.46220328	     41.96388650	     -7.04477045	     86.03005799	     54.06168870	    -10.62712135	     -2.28303092	    -15.47634888	      4.98067979	      0.00083791	     -0.03084996	     -0.00482348	      0.01553230	     -0.01790287	     -0.01000112	      0.00676514	     -0.06540750	     -0.00090567	      0.00495570	     -0.18398366	      0.00014710	     -0.00127466	      0.00031837	      0.00012345	      0.00027622	      0.00011049	      0.00055244	      0.00035356	      0.00106069	      0.00059664	     -0.00125461	      0.00029435	      0.00035322	      0.00247442	      0.00868145	      0.00603927	     -0.00809430	      0.01954376	     -0.01853721	      0.00247442	      0.00868145	      0.00603927	      0.00054521	      0.01811782	     -0.00952024	      0.00392226	      0.00482765	      0.01590453	      0.00000000	      0.00762051	      0.00000000	     -0.00708776	     -0.03275466	     -0.00628255	      0.01567311	     -0.00053930	     -0.00457616	     -0.00088073	      0.01476266	     -0.00603927	      0.00243248	      0.02130521	     -0.01761454	     -0.00591345	      0.01279151	     -0.00541018	     -0.01233018	      0.02700897	     -0.03023830	     -0.02315054	      0.01430133	     -0.00725551	     -0.01534982	      0.03120291	     -0.03778739
      0.46666667	     -0.31888283	      0.13506372	     -0.13506372	      0.31888283	     -0.06456729	      0.52181010	      0.23455005	     -0.23455005	     -0.52181010	      0.06456729	     99.31207031	     75.49834439	     -1.73332261	    -23.42048080	     28.36135344	     10.62374832	     -0.05039584	     -0.81901000	     -0.07047304	     -0.40950500	     -9.68846410	      1.37163774	    -32.24721887	      4.19844515	      9.01656345	     10.50527979	     10.13375804	    -26.79675751	     47.89389452	     10.48628344	     86.46560308	     71.46214133	     41.96412808	     -7.04468861	     86.03018807	     54.06171543	    -10.62698483	     -2.28224905	    -15.47613900	      4.98069406	      0.00083811	     -0.03085064	     -0.00482359	      0.01553240	     -0.01790450	     -0.01000101	      0.00676502	     -0.06540758	     -0.00090580	      0.00495585	     -0.18398364	      0.00014706	     -0.00127485	      0.00031842	      0.00012346	      0.00027622	      0.00011049	      0.00055244	      0.00035356	      0.00106068	      0.00059663	     -0.00125467	      0.00029436	      0.00035323	      0.00247467	      0.00868232	      0.00603987	     -0.00809511	      0.01954570	     -0.01853905	      0.00247467	      0.00868232	      0.00603987	      0.00054527	      0.01811962	     -0.00952119	      0.00392255	      0.00482813	      0.01590523	      0.00000000	      0.00762204	      0.00000000	     -0.00708846	     -0.03275792	     -0.00628383	      0.01567181	     -0.00053924	     -0.00457556	     -0.00088081	      0.01476413	     -0.00603987	      0.00243273	      0.02130733	     -0.01761630	     -0.00591404	      0.01279279	     -0.00541072	     -0.01233141	      0.02701165	     -0.03024131	     -0.02315285	      0.01430275	     -0.00725624	     -0.01535134	      0.03120601	     -0.03779115
      0.50000000	     -0.31917162	      0.13518604	     -0.13518604	      0.31917162	     -0.06462576	      0.52228267	      0.23476247	     -0.23476247	     -0.52228267	      0.06462576	     99.23375695	     75.56671878	     -1.73195579	    -23.06013306	     28.35594207	     10.34070649	     -0.05196939	     -0.82776651	     -0.07273986	     -0.41388326	     -9.68718128	      1.57038325	    -32.22556347	      4.35937732	      9.24639088	     10.53121110	     10.12961763	    -26.62793401	     47.93783928	     10.38161264	     86.43249262	     71.17160576	     42.13493648	     -6.94313644	     85.83616767	     54.01713667	    -10.37353295	     -1.90334116	    -15.55340534	      4.97667983	      0.00083793	     -0.03085002	     -0.00482349	      0.01551277	     -0.01790303	     -0.01001952	      0.00678594	     -0.06539405	     -0.00088300	      0.00492993	     -0.18398716	      0.00015536	     -0.00124088	      0.00030949	      0.00012096	      0.00027310	      0.00010924	      0.00054620	      0.00034957	      0.00104871	      0.00058990	     -0.00125433	      0.00029431	      0.00035318	      0.00247691	      0.00869018	      0.00604534	     -0.00810244	      0.01956340	     -0.01855584	      0.00247691	      0.00869018	      0.00604534	      0.00054576	      0.01813603	     -0.00952981	      0.00392515	      0.00483250	      0.01591166	      0.00000000	      0.00763595	      0.00000000	     -0.00709488	     -0.03278759	     -0.00629537	      0.01547950	     -0.00052773	     -0.00443270	     -0.00088161	      0.01477750	     -0.00604534	      0.00243493	      0.02132663	     -0.01763225	     -0.00591940	      0.01280437	     -0.00541562	     -0.01234257	      0.02703612	     -0.03026869	     -0.02317381	      0.01431571	     -0.00726281	     -0.01536525	      0.03123427	     -0.03782537
      0.53333333	     -0.31920962	      0.13520213	     -0.13520213	      0.31920962	     -0.06463345	      0.52234484	      0.23479041	     -0.23479041	     -0.52234484	      0.06463345	     99.23891865	     75.57571439	     -1.73204588	    -23.05897027	     28.36254672	     10.34239268	     -0.05197171	     -0.82777644	     -0.07274376	     -0.41388822	     -9.68737556	      1.57055899	    -32.22565978	      4.35936726	      9.24658569	     10.53129954	     10.12967232	    -26.62787775	     47.93802806	     10.38153291	     86.43254701	     71.17157424	     42.13510069	     -6.94300299	     85.83631117	     54.01715685	    -10.37420723	     -1.90246301	    -15.55351703	      4.97666203	      0.00083814	     -0.03085078	     -0.00482362	      0.01551288	     -0.01790482	     -0.01001940	      0.00678581	     -0.06539414	     -0.00088314	      0.00493008	     -0.18398714	      0.00015531	     -0.00124108	      0.00030954	      0.00012098	      0.00027310	      0.00010924	      0.00054619	      0.00034956	      0.00104869	      0.00058989	     -0.00125439	      0.00029432	      0.00035319	      0.00247721	      0.00869121	      0.00604606	     -0.00810340	      0.01956573	     -0.01855805	      0.00247721	      0.00869121	      0.00604606	      0.00054583	      0.01813819	     -0.00953095	      0.00392549	      0.00483307	      0.01591251	      0.00000000	      0.00763778	      0.00000000	     -0.00709573	     -0.03279149	     -0.00629689	      0.01547886	     -0.00052770	     -0.00443225	     -0.00088172	      0.01477926	     -0.00604606	      0.00243522	      0.02132916	     -0.01763435	     -0.00592010	      0.01280590	     -0.00541626	     -0.01234404	      0.02703933	     -0.03027230	     -0.02317657	      0.01431741	     -0.00726367	     -0.01536707	      0.03123799	     -0.03782988
